{"title":"Stolichani v poveche - Season 4 - Episode 10 - SatRip","uid":7848801,"size":335778645,"categoryP":"video","categoryS":"tv_shows","magnet":"?xt=urn:btih:a8d80501cad3bcc87b5e5d6a1a51b1b9ce478b55&amp;dn=Stolichani+v+poveche+-+Season+4+-+Episode+10+-+SatRip&amp;tr=udp%3A%2F%2Ftracker.openbittorrent.com%3A80&amp;tr=udp%3A%2F%2Fopen.demonii.com%3A1337&amp;tr=udp%3A%2F%2Ftracker.coppersurfer.tk%3A6969&amp;tr=udp%3A%2F%2Fexodus.desync.com%3A6969","seeders":1,"leechers":0,"uploader":null,"files":1,"time":1353539204,"description":"Input #0, mov,mp4,m4a,3gp,3g2,mj2, from 'Stolichani v poveche - Season 4 - Episode 10.mp4':\n  Metadata:\n    major_brand     : mp42\n    minor_version   : 0\n    compatible_brands: mp42isomavc1\n    creation_time   : 2012-11-21 21:56:00\n    encoder         : HandBrake 5044svn 2012110601\n  Duration: 00:46:13.22, start: 0.000000, bitrate: 968 kb/s\n    Stream #0:0(und): Video: h264 (Main) (avc1 / 0x31637661), yuv420p, 720x576 [SAR 16:11 DAR 20:11], 872 kb/s, 25 fps, 25 tbr, 90k tbn, 180k tbc\n    Metadata:\n      creation_time   : 2012-11-21 21:56:00\n    Stream #0:1(und): Audio: aac (mp4a / 0x6134706D), 48000 Hz, stereo, s16, 90 kb/s\n    Metadata:\n      creation_time   : 2012-11-21 21:56:00","torrent":{"xt":"urn:btih:a8d80501cad3bcc87b5e5d6a1a51b1b9ce478b55","amp;dn":"Stolichani+v+poveche+-+Season+4+-+Episode+10+-+SatRip","amp;tr":["udp%3A%2F%2Ftracker.openbittorrent.com%3A80","udp%3A%2F%2Fopen.demonii.com%3A1337","udp%3A%2F%2Ftracker.coppersurfer.tk%3A6969","udp%3A%2F%2Fexodus.desync.com%3A6969"],"infoHash":"a8d80501cad3bcc87b5e5d6a1a51b1b9ce478b55","infoHashBuffer":{"type":"Buffer","data":[168,216,5,1,202,211,188,200,123,94,93,106,26,81,177,185,206,71,139,85]},"announce":[],"urlList":[]}}